# 3ds Max Wavefront OBJ Exporter v0.97b - (c)2007 guruware
# File Created: 21.09.2013 18:38:19

#
# object Box001
#

v  -125.6826 -127.0075 1.0395
v  -125.6826 126.2122 1.0395
v  125.8294 126.2122 1.0395
v  125.8294 -127.0075 1.0395
v  -125.6826 -127.0075 55.4205
v  125.8294 -127.0075 55.4205
v  125.8294 126.2122 55.4205
v  -125.6826 126.2122 55.4205
v  -125.6826 -128.0075 2.0395
v  125.8294 -128.0075 2.0395
v  125.8294 -128.0075 54.4205
v  -125.6826 -128.0075 54.4205
v  126.8294 -127.0075 2.0395
v  126.8294 126.2122 2.0395
v  126.8294 126.2122 54.4205
v  126.8294 -127.0075 54.4205
v  125.8294 127.2122 2.0395
v  -125.6826 127.2122 2.0395
v  -125.6826 127.2122 54.4205
v  125.8294 127.2122 54.4205
v  -126.6826 126.2122 2.0395
v  -126.6826 -127.0075 2.0395
v  -126.6826 -127.0075 54.4205
v  -126.6826 126.2122 54.4205
# 24 vertices

vn 0.0000 0.0000 -1.0000
vn 0.0000 0.0000 1.0000
vn 0.0000 -1.0000 0.0000
vn 1.0000 0.0000 0.0000
vn 0.0000 1.0000 0.0000
vn -1.0000 0.0000 0.0000
vn -0.5774 -0.5774 -0.5774
vn 0.5774 -0.5774 -0.5774
vn -0.5774 0.5774 -0.5774
vn 0.5774 0.5774 -0.5774
vn -0.5774 -0.5774 0.5774
vn 0.5774 -0.5774 0.5774
vn -0.5774 0.5774 0.5774
vn 0.5774 0.5774 0.5774
vn -0.7071 0.0000 -0.7071
vn 0.0000 0.7071 -0.7071
vn 0.7071 0.0000 -0.7071
vn 0.0000 -0.7071 -0.7071
vn 0.0000 -0.7071 0.7071
vn 0.7071 0.0000 0.7071
vn 0.0000 0.7071 0.7071
vn -0.7071 0.0000 0.7071
vn 0.7071 -0.7071 0.0000
vn -0.7071 -0.7071 0.0000
vn 0.7071 0.7071 0.0000
vn -0.7071 0.7071 0.0000
# 26 vertex normals

vt 0.4822 0.4790 0.0000
vt 0.0100 0.4790 0.0000
vt 0.0100 0.0100 0.0000
vt 0.4822 0.0100 0.0000
vt 0.0100 0.9799 0.0000
vt 0.0100 0.5109 0.0000
vt 0.4822 0.5109 0.0000
vt 0.4822 0.9799 0.0000
vt 0.9831 0.2349 0.0000
vt 0.5141 0.2349 0.0000
vt 0.5141 0.1372 0.0000
vt 0.9831 0.1372 0.0000
vt 0.9881 0.6104 0.0000
vt 0.5159 0.6104 0.0000
vt 0.5159 0.5127 0.0000
vt 0.9881 0.5127 0.0000
vt 0.9831 0.7357 0.0000
vt 0.5141 0.7357 0.0000
vt 0.5141 0.6381 0.0000
vt 0.9831 0.6381 0.0000
vt 0.9881 0.1095 0.0000
vt 0.5159 0.1095 0.0000
vt 0.5159 0.0119 0.0000
vt 0.9881 0.0119 0.0000
vt 0.5141 0.2606 0.0000
vt 0.5167 0.2606 0.0000
vt 0.5154 0.2629 0.0000
vt 0.5154 0.7638 0.0000
vt 0.5141 0.7615 0.0000
vt 0.5167 0.7615 0.0000
vt 0.5141 0.2868 0.0000
vt 0.5167 0.2868 0.0000
vt 0.5154 0.2891 0.0000
vt 0.5419 0.2629 0.0000
vt 0.5406 0.2606 0.0000
vt 0.5432 0.2606 0.0000
vt 0.5141 0.7900 0.0000
vt 0.5154 0.7877 0.0000
vt 0.5167 0.7900 0.0000
vt 0.5406 0.7638 0.0000
vt 0.5419 0.7615 0.0000
vt 0.5432 0.7638 0.0000
vt 0.5141 0.3153 0.0000
vt 0.5154 0.3130 0.0000
vt 0.5167 0.3153 0.0000
vt 0.5406 0.2891 0.0000
vt 0.5419 0.2868 0.0000
vt 0.5432 0.2891 0.0000
vt 0.5159 0.1114 0.0000
vt 0.9881 0.1114 0.0000
vt 0.5141 0.7376 0.0000
vt 0.9831 0.7376 0.0000
vt 0.5159 0.6123 0.0000
vt 0.9881 0.6123 0.0000
vt 0.5141 0.2367 0.0000
vt 0.9831 0.2367 0.0000
vt 0.9831 0.1353 0.0000
vt 0.5141 0.1353 0.0000
vt 0.9881 0.5109 0.0000
vt 0.5159 0.5109 0.0000
vt 0.9831 0.6362 0.0000
vt 0.5141 0.6362 0.0000
vt 0.9881 0.0100 0.0000
vt 0.5159 0.0100 0.0000
vt 0.9900 0.6104 0.0000
vt 0.9900 0.5127 0.0000
vt 0.5141 0.0119 0.0000
vt 0.5141 0.1095 0.0000
vt 0.5141 0.6104 0.0000
vt 0.5141 0.5127 0.0000
vt 0.9900 0.1095 0.0000
vt 0.9900 0.0119 0.0000
# 72 texture coords

g Box001
s 2
f 1/1/1 2/2/1 3/3/1 4/4/1 
s 4
f 5/5/2 6/6/2 7/7/2 8/8/2 
s 8
f 9/9/3 10/10/3 11/11/3 12/12/3 
s 16
f 13/13/4 14/14/4 15/15/4 16/16/4 
s 32
f 17/17/5 18/18/5 19/19/5 20/20/5 
s 64
f 21/21/6 22/22/6 23/23/6 24/24/6 
s off
f 9/25/7 22/26/7 1/27/7 
f 4/28/8 13/29/8 10/30/8 
f 21/31/9 18/32/9 2/33/9 
f 3/34/10 17/35/10 14/36/10 
f 12/37/11 5/38/11 23/39/11 
f 16/40/12 6/41/12 11/42/12 
f 24/43/13 8/44/13 19/45/13 
f 20/46/14 7/47/14 15/48/14 
f 1/49/15 22/22/15 21/21/15 2/50/15 
f 2/51/16 18/18/16 17/17/16 3/52/16 
f 3/53/17 14/14/17 13/13/17 4/54/17 
f 4/55/18 10/10/18 9/9/18 1/56/18 
f 5/57/19 12/12/19 11/11/19 6/58/19 
f 6/59/20 16/16/20 15/15/20 7/60/20 
f 7/61/21 20/20/21 19/19/21 8/62/21 
f 8/63/22 24/24/22 23/23/22 5/64/22 
f 10/65/23 13/13/23 16/16/23 11/66/23 
f 12/67/24 23/23/24 22/22/24 9/68/24 
f 14/14/25 17/69/25 20/70/25 15/15/25 
f 18/71/26 21/21/26 24/24/26 19/72/26 
# 18 polygons - 8 triangles

